<?xml version="1.0" standalone="no"?><!DOCTYPE svg PUBLIC "-//W3C//DTD SVG 1.1//EN" "http://www.w3.org/Graphics/SVG/1.1/DTD/svg11.dtd"><svg class="icon" width="64px" height="64.00px" viewBox="0 0 1024 1024" version="1.1" xmlns="http://www.w3.org/2000/svg"><path fill="#00aced" d="M512 960A448 448 0 1 0 273.28 133.12l-192-51.2 51.2 192A448 448 0 0 0 512 960zM238.08 395.52l26.88-33.28q48.64 38.4 89.6 75.52l-30.72 37.12a1108.48 1108.48 0 0 0-85.76-79.36zM256 755.84a2176 2176 0 0 0 54.4-225.92 440.96 440.96 0 0 0 42.24 17.92l-50.56 223.36z m0-512l27.52-30.72q36.48 28.8 92.8 81.92l-31.36 34.56Q290.56 272.64 256 243.2z m145.28 374.4v-34.56h298.88v34.56A334.72 334.72 0 0 1 596.48 704a612.48 612.48 0 0 0 168.96 32.64q-11.52 21.12-21.12 40.96a598.4 598.4 0 0 1-192-51.84 791.68 791.68 0 0 1-192 55.04q-7.68-18.56-17.92-39.68A653.44 653.44 0 0 0 512 704a248.96 248.96 0 0 1-80-85.76zM384 421.12h352.64V563.2H704v-16H416.64v16H384z m31.36-192H704v170.88h-34.56V384H448v14.08h-34.56zM416.64 512h72.32v-56.96H416.64z m251.52-256H448v31.36h220.16zM448 353.28h220.16V320H448z m206.72 264.96H472.32a228.48 228.48 0 0 0 81.28 69.12 417.92 417.92 0 0 0 101.12-69.12zM522.24 512h72.32v-56.96H522.24z m177.92-58.24H627.84V512h71.68z" /></svg>