<?xml version="1.0" standalone="no"?><!DOCTYPE svg PUBLIC "-//W3C//DTD SVG 1.1//EN" "http://www.w3.org/Graphics/SVG/1.1/DTD/svg11.dtd"><svg class="icon" width="64px" height="64.00px" viewBox="0 0 1024 1024" version="1.1" xmlns="http://www.w3.org/2000/svg"><path fill="#cdcdcd" d="M920.22784 812.02688a22.71232 22.71232 0 0 0-22.74304 22.73792v62.80192H190.65344c-34.51904 0-62.68416-27.35616-64.07168-61.52704 0-0.57856 0.11776-1.15712 0.11776-1.8432 0-1.04448 0-2.53952-0.11776-4.62336 1.96608-33.59232 29.9008-60.36992 64.07168-60.36992h724.15744c1.84832 0 3.57376-0.2304 5.19168-0.6912h0.34816a22.71232 22.71232 0 0 0 22.73792-22.73792V103.69024a22.71232 22.71232 0 0 0-22.73792-22.74304H190.76608c-60.4928 0-109.6704 49.17248-109.6704 109.66528 0 0.80896 0.11776 1.6128 0.2304 2.42688-0.11264 55.87456-0.80896 569.00096-0.11264 636.41088 0 1.28-0.2304 2.6624-0.2304 3.93216 0 58.18368 45.48096 105.73824 102.73792 109.32224 1.15712 0.2304 2.31424 0.34304 3.46624 0.34304h733.16352a22.7072 22.7072 0 0 0 22.73792-22.73792V834.7648a22.8864 22.8864 0 0 0-22.8608-22.73792z m-406.58944-182.1184c-185.32864 0-236.20096-52.70016-236.20096-163.52768 0-30.88896 9.08288-59.96032 25.43616-83.57888l10.90048-14.53568V241.0752L402.80576 299.2128l18.16576 12.71808 19.98848-3.6352c21.81632-3.62496 47.24224-5.44768 72.6784-5.44768 25.45664 0 50.88256 1.8176 72.68352 5.44768l21.80608 3.6352 18.17088-12.71808 87.21408-58.1376V368.27136l10.9056 14.53568c18.17088 25.43616 25.4464 54.5024 25.4464 83.57888 0 110.8224-50.88256 163.52256-236.22656 163.52256z"  /></svg>