<?xml version="1.0" standalone="no"?><!DOCTYPE svg PUBLIC "-//W3C//DTD SVG 1.1//EN" "http://www.w3.org/Graphics/SVG/1.1/DTD/svg11.dtd"><svg class="icon" width="64px" height="64.00px" viewBox="0 0 1024 1024" version="1.1" xmlns="http://www.w3.org/2000/svg"><path fill="#cdcdcd" d="M89.4126 345.6061l97.963 0 0 221.525-97.963 0 0-221.525ZM244.3786 316.0801c0 0 340.993-12.459 519.852-225.451 0 0 152.9876-36.5773 141.312 364.544 0 0 16.2836 276.2209-139.8682 315.1309 0 0-117.2419-152.0558-521.1894-170.4868L244.3786 316.0801zM307.8666 666.8001c0 0 14.336 130.048 119.808 266.24 0 0 91.648 4.096 105.472-33.792 0 0 9.728-25.088-19.456-57.344-9.3399-14.8285-92.4058-84.992-105.984-175.104L307.866624 666.8001z" /></svg>