<?xml version="1.0" standalone="no"?><!DOCTYPE svg PUBLIC "-//W3C//DTD SVG 1.1//EN" "http://www.w3.org/Graphics/SVG/1.1/DTD/svg11.dtd"><svg class="icon" width="64px" height="64.00px" viewBox="0 0 1024 1024" version="1.1" xmlns="http://www.w3.org/2000/svg"><path fill="#00aced" d="M816.128 371.2l138.752-67.072c15.36-7.168 33.28-1.024 40.448 14.336 2.048 4.096 3.072 8.704 3.072 13.312v335.872c0 16.896-13.824 30.208-30.208 30.208-4.608 0-9.216-1.024-13.312-3.072l-138.752-67.072v129.536c0 33.792-27.136 60.928-60.928 60.928H86.528c-33.792 0-60.928-27.136-60.928-60.928v-486.4C25.6 237.056 52.736 209.92 86.528 209.92h668.672c33.792 0 60.928 27.136 60.928 60.928v100.352z m0 188.416l119.296 57.856V381.44l-119.296 57.856v120.32zM86.528 270.848v486.4h668.672v-486.4H86.528z m243.2 356.352V384c0-16.896 13.824-30.208 30.208-30.208 5.12 0 10.24 1.536 14.848 4.096l212.992 121.856c14.336 8.192 19.456 27.136 11.264 41.472-2.56 4.608-6.656 8.704-11.264 11.264l-212.992 121.856c-14.336 8.192-33.28 3.072-41.472-11.264-2.56-5.632-3.584-10.752-3.584-15.872z m60.928-190.976v138.24L512 505.344 390.656 436.224z" /></svg>